<svg width="32" height="32" viewBox="0 0 32 32" fill="none" xmlns="http://www.w3.org/2000/svg">
<path fill-rule="evenodd" clip-rule="evenodd" d="M13 9C13 11.211 11.2105 13 9 13C6.79359 13 5 11.211 5 9C5 6.78905 6.79359 5 9 5C11.2105 5 13 6.78905 13 9Z" fill="#202226"/>
<path fill-rule="evenodd" clip-rule="evenodd" d="M23 27C20.7936 27 19 25.211 19 23C19 20.785 20.7936 19 23 19C25.2105 19 27 20.785 27 23C27 25.211 25.2105 27 23 27Z" fill="#202226"/>
<path fill-rule="evenodd" clip-rule="evenodd" d="M21.5 7.50027L7.5 21.5003L10.5 24.5003L24.5 10.5003L21.5 7.50027Z" fill="#202226"/>
</svg>