<svg width="24" height="24" viewBox="0 0 24 24" fill="none" xmlns="http://www.w3.org/2000/svg">
<path fill-rule="evenodd" clip-rule="evenodd" d="M16.0964 3.80723H7.90362C6.93976 3.92771 6.45783 4.04819 6.09639 4.16868C5.61446 4.28916 5.25301 4.53012 4.89157 4.89157C4.60556 5.17758 4.47043 5.46358 4.30709 5.80928C4.26405 5.90039 4.21892 5.99589 4.16868 6.09639C4.15004 6.1523 4.12852 6.2111 4.10545 6.27412C3.97941 6.61847 3.80723 7.08887 3.80723 7.90362V16.0964C3.92771 17.0602 4.04819 17.5422 4.16868 17.9036C4.28916 18.3855 4.53012 18.747 4.89157 19.1084C5.17758 19.3944 5.46359 19.5296 5.80929 19.6929C5.90047 19.736 5.9958 19.781 6.09639 19.8313C6.1523 19.85 6.2111 19.8715 6.27412 19.8946C6.61847 20.0206 7.08887 20.1928 7.90362 20.1928H16.0964C17.0602 20.0723 17.5422 19.9518 17.9036 19.8313C18.3855 19.7108 18.747 19.4699 19.1084 19.1084C19.3944 18.8224 19.5296 18.5364 19.6929 18.1907C19.736 18.0996 19.781 18.0042 19.8313 17.9036C19.85 17.8477 19.8715 17.7889 19.8946 17.7259C20.0206 17.3815 20.1928 16.9111 20.1928 16.0964V7.90362C20.0723 6.93976 19.9518 6.45783 19.8313 6.09639C19.7108 5.61446 19.4699 5.25301 19.1084 4.89157C18.8224 4.60556 18.5364 4.47043 18.1907 4.30709C18.0997 4.26408 18.004 4.21888 17.9036 4.16868C17.8477 4.15004 17.7889 4.12852 17.7259 4.10545C17.3815 3.97941 16.9111 3.80723 16.0964 3.80723ZM6.81928 12C6.81928 9.10843 9.10844 6.81928 12 6.81928C14.8916 6.81928 17.1807 9.10843 17.1807 12C17.1807 14.8916 14.8916 17.1807 12 17.1807C9.10844 17.1807 6.81928 14.8916 6.81928 12ZM17.3012 7.90362C17.9666 7.90362 18.506 7.3642 18.506 6.6988C18.506 6.03339 17.9666 5.49398 17.3012 5.49398C16.6358 5.49398 16.0964 6.03339 16.0964 6.6988C16.0964 7.3642 16.6358 7.90362 17.3012 7.90362Z" fill="white"/>
<path d="M12 15.3735C10.1928 15.3735 8.62651 13.9277 8.62651 12C8.62651 10.1928 10.0723 8.62651 12 8.62651C13.8072 8.62651 15.3735 10.0723 15.3735 12C15.3735 13.8072 13.8072 15.3735 12 15.3735Z" fill="white"/>
<path fill-rule="evenodd" clip-rule="evenodd" d="M7.90362 2H16.0964C17.1807 2.12048 17.9036 2.24096 18.506 2.48193C19.2289 2.84337 19.7108 3.08434 20.3133 3.68675C20.9157 4.28916 21.2771 4.89157 21.5181 5.49398C21.759 6.09639 22 6.81928 22 7.90362V16.0964C21.8795 17.1807 21.759 17.9036 21.5181 18.506C21.1566 19.2289 20.9157 19.7108 20.3133 20.3133C19.7108 20.9157 19.1084 21.2771 18.506 21.5181C17.9036 21.759 17.1807 22 16.0964 22H7.90362C6.81928 21.8795 6.09639 21.759 5.49398 21.5181C4.77109 21.1566 4.28916 20.9157 3.68675 20.3133C3.08434 19.7108 2.72289 19.1084 2.48193 18.506C2.24096 17.9036 2 17.1807 2 16.0964V7.90362C2.12048 6.81928 2.24096 6.09639 2.48193 5.49398C2.84337 4.77109 3.08434 4.28916 3.68675 3.68675C4.28916 3.08434 4.89157 2.72289 5.49398 2.48193C6.09639 2.24096 6.81928 2 7.90362 2ZM16.0964 3.80723H7.90362C6.93976 3.92771 6.45783 4.04819 6.09639 4.16868C5.61446 4.28916 5.25301 4.53012 4.89157 4.89157C4.60556 5.17758 4.47043 5.46358 4.30709 5.80928C4.26405 5.90039 4.21892 5.99589 4.16868 6.09639C4.15004 6.1523 4.12852 6.2111 4.10545 6.27412C3.97941 6.61847 3.80723 7.08887 3.80723 7.90362V16.0964C3.92771 17.0602 4.04819 17.5422 4.16868 17.9036C4.28916 18.3855 4.53012 18.747 4.89157 19.1084C5.17758 19.3944 5.46359 19.5296 5.80929 19.6929C5.90047 19.736 5.9958 19.781 6.09639 19.8313C6.1523 19.85 6.2111 19.8715 6.27412 19.8946C6.61847 20.0206 7.08887 20.1928 7.90362 20.1928H16.0964C17.0602 20.0723 17.5422 19.9518 17.9036 19.8313C18.3855 19.7108 18.747 19.4699 19.1084 19.1084C19.3944 18.8224 19.5296 18.5364 19.6929 18.1907C19.736 18.0996 19.781 18.0042 19.8313 17.9036C19.85 17.8477 19.8715 17.7889 19.8946 17.7259C20.0206 17.3815 20.1928 16.9111 20.1928 16.0964V7.90362C20.0723 6.93976 19.9518 6.45783 19.8313 6.09639C19.7108 5.61446 19.4699 5.25301 19.1084 4.89157C18.8224 4.60556 18.5364 4.47043 18.1907 4.30709C18.0997 4.26408 18.004 4.21888 17.9036 4.16868C17.8477 4.15004 17.7889 4.12852 17.7259 4.10545C17.3815 3.97941 16.9111 3.80723 16.0964 3.80723Z" fill="white"/>
</svg>
