<svg width="40" height="40" viewBox="0 0 40 40" fill="none" xmlns="http://www.w3.org/2000/svg">
<path fill-rule="evenodd" clip-rule="evenodd" d="M35 20.1383C34.458 20.0474 33.9012 20 33.3333 20C27.8105 20 23.3333 24.4772 23.3333 30C23.3333 30.5679 23.3807 31.1247 23.4716 31.6667H5C5 31.6667 5 30.1743 5 28.3334C5 28.3334 5 15.1743 5 13.3334C5 11.4924 5.00021 10 5.00021 10L35 10C35 10 35 11.4924 35 13.3334V20.1383ZM30.2407 13.0661L20 18.5803L9.75929 13.0661L8.57404 15.2673L19.4074 21.1006C19.7773 21.2998 20.2227 21.2998 20.5926 21.1006L31.426 15.2673L30.2407 13.0661Z" fill="white"/>
<path opacity="0.3" d="M32.5 33.3333C34.8012 33.3333 36.6667 31.4679 36.6667 29.1667C36.6667 26.8655 34.8012 25 32.5 25C30.1988 25 28.3333 26.8655 28.3333 29.1667C28.3333 31.4679 30.1988 33.3333 32.5 33.3333Z" fill="white"/>
</svg>
