<svg width="296" height="280" viewBox="0 0 296 280" fill="none" xmlns="http://www.w3.org/2000/svg">
<g opacity="0.2">
<path fill-rule="evenodd" clip-rule="evenodd" d="M0.422852 82.4796L197.384 47.75L217.29 160.641C203.839 168.24 195.974 183.732 198.81 199.812L198.81 199.813L124.949 212.836L124.949 212.836C121.352 192.439 101.902 178.821 81.5065 182.417C61.1104 186.013 47.4916 205.463 51.088 225.859L51.0881 225.86L26.4701 230.201L0.422852 82.4796ZM272.67 186.79L321.912 178.107L308.486 101.967L254.939 62.9879L214.035 70.2003L229.229 156.37C249.625 152.774 269.074 166.393 272.67 186.789L272.67 186.79ZM112.639 215.007C115.037 228.605 105.958 241.571 92.3602 243.969C78.7629 246.366 65.7964 237.287 63.3988 223.69C61.0012 210.092 70.0805 197.126 83.6778 194.728C97.2752 192.331 110.242 201.41 112.639 215.007ZM240.086 217.922C253.683 215.524 262.762 202.558 260.365 188.96C257.967 175.363 245.001 166.284 231.403 168.681C217.806 171.079 208.727 184.045 211.124 197.643C213.522 211.24 226.488 220.319 240.086 217.922Z" fill="url(#paint0_linear_1320_17165)"/>
</g>
<path fill-rule="evenodd" clip-rule="evenodd" d="M44.4199 128.376L241.381 93.6465L261.287 206.538C247.837 214.136 239.971 229.628 242.807 245.709L242.807 245.709L168.946 258.733L168.946 258.732C165.349 238.336 145.9 224.717 125.504 228.314C105.107 231.91 91.4887 251.36 95.085 271.756L95.0852 271.756L70.4671 276.097L44.4199 128.376ZM316.667 232.686L365.909 224.004L352.483 147.863L298.936 108.884L258.032 116.097L273.226 202.266C293.622 198.671 313.071 212.289 316.667 232.685L316.667 232.686ZM156.636 260.904C159.034 274.501 149.955 287.468 136.357 289.865C122.76 292.263 109.793 283.184 107.396 269.586C104.998 255.989 114.078 243.022 127.675 240.625C141.272 238.227 154.239 247.306 156.636 260.904ZM284.083 263.816C297.68 261.419 306.759 248.452 304.362 234.855C301.964 221.258 288.998 212.178 275.4 214.576C261.803 216.974 252.724 229.94 255.121 243.537C257.519 257.135 270.486 266.214 284.083 263.816Z" fill="url(#paint1_linear_1320_17165)"/>
<defs>
<linearGradient id="paint0_linear_1320_17165" x1="155.139" y1="125.572" x2="157.395" y2="248.518" gradientUnits="userSpaceOnUse">
<stop stop-color="white"/>
<stop offset="1" stop-color="white" stop-opacity="0"/>
</linearGradient>
<linearGradient id="paint1_linear_1320_17165" x1="199.137" y1="171.468" x2="201.392" y2="294.414" gradientUnits="userSpaceOnUse">
<stop stop-color="white"/>
<stop offset="1" stop-color="white" stop-opacity="0"/>
</linearGradient>
</defs>
</svg>