<svg width="287" height="280" viewBox="0 0 287 280" fill="none" xmlns="http://www.w3.org/2000/svg">
<g opacity="0.2">
<path fill-rule="evenodd" clip-rule="evenodd" d="M235.17 28.3622L142.105 44.772L158.515 137.836L251.58 121.427L235.17 28.3622ZM255.228 142.108L162.164 158.518L178.574 251.582L271.638 235.173L255.228 142.108ZM48.418 178.575L141.482 162.165L157.892 255.229L64.8277 271.639L48.418 178.575ZM121.428 48.4189L28.3633 64.8286L44.773 157.893L137.837 141.483L121.428 48.4189Z" fill="url(#paint0_linear_1320_17197)"/>
</g>
<path fill-rule="evenodd" clip-rule="evenodd" d="M279.17 68.3622L186.105 84.772L202.515 177.836L295.58 161.427L279.17 68.3622ZM299.228 182.108L206.164 198.518L222.574 291.582L315.638 275.173L299.228 182.108ZM92.418 218.575L185.482 202.165L201.892 295.229L108.828 311.639L92.418 218.575ZM165.428 88.4189L72.3633 104.829L88.773 197.893L181.837 181.483L165.428 88.4189Z" fill="url(#paint1_linear_1320_17197)"/>
<defs>
<linearGradient id="paint0_linear_1320_17197" x1="142.324" y1="129.141" x2="168.993" y2="257.714" gradientUnits="userSpaceOnUse">
<stop stop-color="white"/>
<stop offset="1" stop-color="white" stop-opacity="0"/>
</linearGradient>
<linearGradient id="paint1_linear_1320_17197" x1="186.324" y1="169.141" x2="212.993" y2="297.714" gradientUnits="userSpaceOnUse">
<stop stop-color="white"/>
<stop offset="1" stop-color="white" stop-opacity="0"/>
</linearGradient>
</defs>
</svg>
