<svg width="287" height="280" viewBox="0 0 287 280" fill="none" xmlns="http://www.w3.org/2000/svg">
<g opacity="0.2">
<path fill-rule="evenodd" clip-rule="evenodd" d="M60.6647 141.577L69.9691 148.327C72.0666 149.859 74.2527 151.267 76.5163 152.546C78.6461 153.769 80.8391 154.88 83.0861 155.876L93.6728 160.477L98.8583 184.001H121.892L127.078 160.466L137.665 155.864C142.286 153.844 146.673 151.331 150.748 148.372L160.063 141.622L183.222 148.934L194.739 129.157L176.777 112.923L178.048 101.538C178.606 96.5582 178.606 91.5326 178.048 86.5529L176.777 75.1678L194.751 58.9002L183.222 39.1114L160.063 46.4239L150.748 39.6739C146.672 36.7006 142.286 34.1699 137.665 32.1251L127.078 27.5239L121.892 4H98.8583L93.6501 27.5351L83.0861 32.1251C80.8372 33.1044 78.644 34.2048 76.5163 35.4214C74.2666 36.6963 72.0921 38.0974 70.0032 39.6177L60.6874 46.3677L37.5398 39.0552L26 58.9002L43.9621 75.1116L42.6913 86.5079C42.133 91.4875 42.133 96.5132 42.6913 101.493L43.9621 112.878L26 129.112L37.5171 148.889L60.6647 141.577ZM142.999 94.0001C142.999 112.019 128.393 126.625 110.374 126.625C92.3558 126.625 77.749 112.019 77.749 94.0001C77.749 75.9818 92.3558 61.375 110.374 61.375C128.393 61.375 142.999 75.9818 142.999 94.0001ZM140.261 235.912L143.73 243.69C144.509 245.45 145.39 247.164 146.369 248.823C147.282 250.396 148.277 251.922 149.35 253.393L154.439 260.268L149.051 277.283L163.831 285.816L175.877 272.635L184.375 273.605C188.089 274.02 191.834 274.034 195.545 273.644L204.023 272.764L216.174 286.035L230.891 277.612L225.379 260.541L230.412 253.707C232.615 250.718 234.477 247.494 235.963 244.092L239.366 236.316L256.925 232.536L256.858 215.568L239.29 211.681L235.813 203.898C234.299 200.481 232.422 197.232 230.215 194.208L225.126 187.334L230.513 170.319L215.734 161.786L203.673 174.957L195.194 173.989C193.389 173.784 191.574 173.678 189.758 173.67C187.842 173.655 185.928 173.748 184.024 173.95L175.546 174.83L163.402 161.563L148.646 170.021L154.166 187.078L149.129 193.919C146.926 196.908 145.064 200.132 143.578 203.534L140.175 211.31L122.636 215.073L122.699 232.029L140.261 235.912ZM210.721 235.889C204.046 247.451 189.262 251.412 177.701 244.737C166.14 238.062 162.178 223.278 168.853 211.717C175.528 200.156 190.312 196.194 201.873 202.869C213.435 209.544 217.396 224.328 210.721 235.889Z" fill="url(#paint0_linear_1320_17115)"/>
</g>
<path fill-rule="evenodd" clip-rule="evenodd" d="M104.665 181.577L113.969 188.327C116.067 189.859 118.253 191.267 120.516 192.546C122.646 193.769 124.839 194.88 127.086 195.876L137.673 200.477L142.858 224.001H165.892L171.078 200.466L181.665 195.864C186.286 193.844 190.673 191.331 194.748 188.372L204.063 181.622L227.222 188.934L238.739 169.157L220.777 152.923L222.048 141.538C222.606 136.558 222.606 131.533 222.048 126.553L220.777 115.168L238.751 98.9002L227.222 79.1114L204.063 86.4239L194.748 79.6739C190.672 76.7006 186.286 74.1699 181.665 72.1251L171.078 67.5239L165.892 44H142.858L137.65 67.5351L127.086 72.1251C124.837 73.1044 122.644 74.2048 120.516 75.4214C118.267 76.6963 116.092 78.0974 114.003 79.6177L104.687 86.3677L81.5398 79.0552L70 98.9002L87.9621 115.112L86.6913 126.508C86.133 131.488 86.133 136.513 86.6913 141.493L87.9621 152.878L70 169.112L81.5171 188.889L104.665 181.577ZM186.999 134C186.999 152.019 172.393 166.625 154.374 166.625C136.356 166.625 121.749 152.019 121.749 134C121.749 115.982 136.356 101.375 154.374 101.375C172.393 101.375 186.999 115.982 186.999 134ZM184.261 275.912L187.73 283.69C188.509 285.45 189.39 287.164 190.369 288.823C191.282 290.396 192.277 291.922 193.35 293.393L198.439 300.268L193.051 317.283L207.831 325.816L219.877 312.635L228.375 313.605C232.089 314.02 235.834 314.034 239.545 313.644L248.023 312.764L260.174 326.035L274.891 317.612L269.379 300.541L274.412 293.707C276.615 290.718 278.477 287.494 279.963 284.092L283.366 276.316L300.925 272.536L300.858 255.568L283.29 251.681L279.813 243.898C278.299 240.481 276.422 237.232 274.215 234.208L269.126 227.334L274.513 210.319L259.734 201.786L247.673 214.957L239.194 213.989C237.389 213.784 235.574 213.678 233.758 213.67C231.842 213.655 229.928 213.748 228.024 213.95L219.546 214.83L207.402 201.563L192.646 210.021L198.166 227.078L193.129 233.919C190.926 236.908 189.064 240.132 187.578 243.534L184.175 251.31L166.636 255.073L166.699 272.029L184.261 275.912ZM254.721 275.889C248.046 287.451 233.262 291.412 221.701 284.737C210.14 278.062 206.178 263.278 212.853 251.717C219.528 240.156 234.312 236.194 245.873 242.869C257.435 249.544 261.396 264.328 254.721 275.889Z" fill="url(#paint1_linear_1320_17115)"/>
<defs>
<linearGradient id="paint0_linear_1320_17115" x1="137.133" y1="115.639" x2="143.588" y2="291.833" gradientUnits="userSpaceOnUse">
<stop stop-color="white"/>
<stop offset="1" stop-color="white" stop-opacity="0"/>
</linearGradient>
<linearGradient id="paint1_linear_1320_17115" x1="181.133" y1="155.639" x2="187.588" y2="331.833" gradientUnits="userSpaceOnUse">
<stop stop-color="white"/>
<stop offset="1" stop-color="white" stop-opacity="0"/>
</linearGradient>
</defs>
</svg>