<svg width="287" height="280" viewBox="0 0 287 280" fill="none" xmlns="http://www.w3.org/2000/svg">
<g opacity="0.2">
<path fill-rule="evenodd" clip-rule="evenodd" d="M240.106 77.9315L267.084 230.929L271.202 254.287L71.7787 289.451L67.66 266.092L32.9195 69.0693L28.8008 45.7109L150.155 24.3129L240.106 77.9315ZM120.323 190.085L166.117 121.803L181.591 132.381L135.797 200.663L120.323 190.085ZM135.418 132.872C137.022 141.967 130.791 150.653 121.492 152.292C112.211 153.929 103.368 147.901 101.764 138.807C100.161 129.712 106.408 121.023 115.69 119.386C124.989 117.747 133.815 123.778 135.418 132.872ZM167.522 183.76C169.126 192.854 177.968 198.882 187.25 197.246C196.549 195.606 202.78 186.92 201.176 177.826C199.57 168.715 190.747 162.7 181.448 164.34C172.166 165.976 165.916 174.649 167.522 183.76Z" fill="url(#paint0_linear_1320_17141)"/>
</g>
<path fill-rule="evenodd" clip-rule="evenodd" d="M284.106 117.932L311.084 270.929L315.202 294.287L115.779 329.451L111.66 306.092L76.9195 109.069L72.8008 85.7109L194.155 64.3129L284.106 117.932ZM164.323 230.085L210.117 161.803L225.591 172.381L179.797 240.663L164.323 230.085ZM179.418 172.872C181.022 181.967 174.791 190.653 165.492 192.292C156.211 193.929 147.368 187.901 145.764 178.807C144.161 169.712 150.408 161.023 159.69 159.386C168.989 157.747 177.815 163.778 179.418 172.872ZM211.522 223.76C213.126 232.854 221.968 238.882 231.25 237.246C240.549 235.606 246.78 226.92 245.176 217.826C243.57 208.715 234.747 202.7 225.448 204.34C216.166 205.976 209.916 214.649 211.522 223.76Z" fill="url(#paint1_linear_1320_17141)"/>
<defs>
<linearGradient id="paint0_linear_1320_17141" x1="141.785" y1="125.269" x2="174.218" y2="276.554" gradientUnits="userSpaceOnUse">
<stop stop-color="white"/>
<stop offset="1" stop-color="white" stop-opacity="0"/>
</linearGradient>
<linearGradient id="paint1_linear_1320_17141" x1="185.785" y1="165.269" x2="218.218" y2="316.554" gradientUnits="userSpaceOnUse">
<stop stop-color="white"/>
<stop offset="1" stop-color="white" stop-opacity="0"/>
</linearGradient>
</defs>
</svg>