<svg width="28" height="20" viewBox="0 0 28 20" fill="none" xmlns="http://www.w3.org/2000/svg">
<g clip-path="url(#clip0_1669_5983)">
<path fill-rule="evenodd" clip-rule="evenodd" d="M26.7866 1.59232C27.2212 2.03254 27.5344 2.5804 27.6949 3.18136C28.6193 6.95045 28.4057 12.9032 27.7129 16.8177C27.5523 17.4187 27.2392 17.9665 26.8046 18.4068C26.37 18.847 25.8292 19.1642 25.2359 19.3268C23.0641 19.9268 14.3231 19.9268 14.3231 19.9268C14.3231 19.9268 5.58208 19.9268 3.41029 19.3268C2.81704 19.1642 2.27619 18.847 1.84162 18.4068C1.40704 17.9665 1.09389 17.4187 0.933362 16.8177C0.00361863 13.065 0.25849 7.10863 0.915414 3.19954C1.07594 2.59859 1.38909 2.05072 1.82367 1.6105C2.25825 1.17028 2.79909 0.853064 3.39234 0.690448C5.56413 0.0904474 14.3052 0.0722656 14.3052 0.0722656C14.3052 0.0722656 23.0462 0.0722656 25.218 0.672266C25.8112 0.834882 26.3521 1.1521 26.7866 1.59232ZM18.7747 10.0006L11.5234 14.2552V5.74608L18.7747 10.0006Z" fill="white"/>
</g>
<defs>
<clipPath id="clip0_1669_5983">
<rect width="28" height="20" fill="white"/>
</clipPath>
</defs>
</svg>